<?xml version="1.0" encoding="UTF-8" standalone="no"?>
<!DOCTYPE svg PUBLIC "-//W3C//DTD SVG 20010904//EN"
              "http://www.w3.org/TR/2001/REC-SVG-20010904/DTD/svg10.dtd">

<svg xmlns="http://www.w3.org/2000/svg"
     width="0.853333in" height="0.636667in"
     viewBox="0 0 256 191">
  <path id="Path"
        fill="black"
        d="M 112.64,0.00
           C 112.64,0.00 75.79,0.00 75.79,0.00
             75.79,0.00 74.98,6.11 74.98,6.11
             74.98,6.11 37.32,6.11 37.32,6.11
             23.68,11.82 17.57,23.64 14.31,43.82
             14.31,43.82 12.89,52.38 12.89,52.38
             12.89,52.38 2.50,52.38 2.50,52.38
             2.50,52.38 0.06,69.91 0.06,69.91
             0.06,69.91 10.44,69.91 10.44,69.91
             10.44,69.91 0.67,142.06 0.67,142.06
             0.67,142.06 32.02,142.06 32.02,142.06
             32.02,142.06 44.44,69.91 44.44,69.91
             44.44,69.91 60.12,69.91 60.12,69.91
             60.12,69.91 63.37,52.38 63.37,52.38
             63.37,52.38 47.70,52.38 47.70,52.38
             47.70,52.38 49.33,43.62 49.33,43.62
             52.58,26.29 59.30,15.69 74.57,8.76
             74.57,8.76 56.25,142.06 56.25,142.06
             56.25,142.06 87.60,142.06 87.60,142.06
             87.60,142.06 112.64,0.00 112.64,0.00 Z
           M 160.07,27.72
           C 160.07,19.97 152.33,13.04 141.95,13.04
             131.57,13.04 123.83,19.97 123.83,27.72
             123.83,35.46 131.36,42.39 141.95,42.39
             152.33,42.39 160.07,35.46 160.07,27.72 Z
           M 156.61,52.38
           C 156.61,52.38 119.76,52.38 119.76,52.38
             119.76,52.38 108.36,142.06 108.36,142.06
             108.36,142.06 139.71,142.06 139.71,142.06
             139.71,142.06 156.61,52.38 156.61,52.38 Z
           M 228.28,37.91
           C 228.28,37.91 189.81,49.53 189.81,49.53
             195.51,51.77 200.80,54.83 205.69,58.49
             205.69,58.49 172.30,58.49 172.30,58.49
             172.30,58.49 154.38,190.97 154.38,190.97
             154.38,190.97 183.90,190.97 183.90,190.97
             183.90,190.97 193.27,142.06 193.27,142.06
             193.27,142.06 225.64,142.06 225.64,142.06
             246.20,116.58 255.97,94.57 255.97,78.67
             255.97,63.59 246.81,50.55 228.28,37.91 Z
           M 193.47,140.84
           C 193.47,140.84 208.74,60.94 208.74,60.94
             217.29,68.89 221.56,77.04 221.56,86.21
             221.56,99.46 212.40,118.01 193.47,140.84 Z" />
</svg>
